<svg 
  xmlns="http://www.w3.org/2000/svg" 
  viewBox="0 0 32 32" 
  style="display: block; height: 24px; width: 24px; fill: currentcolor;"
>
  <path 
    d="M29 5a2 2 0 0 1 2 1.85V25a2 2 0 0 1-1.85 2H3a2 2 0 0 1-2-1.85V7a2 2 0 0 1 1.85-2H3zm0 2H3v18h26zm-8 13v2H11v-2zm3-5a1 1 0 1 1 0 2 1 1 0 0 1 0-2zm-4 0a1 1 0 1 1 0 2 1 1 0 0 1 0-2zm-4 0a1 1 0 1 1 0 2 1 1 0 0 1 0-2zm-4 0a1 1 0 1 1 0 2 1 1 0 0 1 0-2zm-4 0a1 1 0 1 1 0 2 1 1 0 0 1 0-2zm16-4a1 1 0 1 1 0 2 1 1 0 0 1 0-2zm-4 0a1 1 0 1 1 0 2 1 1 0 0 1 0-2zm-4 0a1 1 0 1 1 0 2 1 1 0 0 1 0-2zm-4 0a1 1 0 1 1 0 2 1 1 0 0 1 0-2zm-4 0a1 1 0 1 1 0 2 1 1 0 0 1 0-2z">
  </path>
</svg>